<?xml version="1.0" encoding="utf-8"?>
<!-- Generator: Adobe Illustrator 23.0.1, SVG Export Plug-In . SVG Version: 6.00 Build 0)  -->
<svg version="1.1" id="Calque_1" xmlns="http://www.w3.org/2000/svg" xmlns:xlink="http://www.w3.org/1999/xlink" x="0px" y="0px"
	 viewBox="0 0 595.3 841.9" style="enable-background:new 0 0 595.3 841.9;" xml:space="preserve">
<style type="text/css">
	.st0{display:none;}
	.st1{display:inline;}
	.st2{font-family:'ArialMT';}
	.st3{font-size:12px;}
	.st4{display:inline;fill:#FFFFFF;stroke:#000000;stroke-miterlimit:10;}
	.st5{fill:#FFFFFF;stroke:#000000;stroke-miterlimit:10;}
	.st6{fill:none;stroke:#000000;stroke-miterlimit:10;}
	.st7{display:inline;fill:none;stroke:#000000;stroke-miterlimit:10;}
	.st8{stroke:#000000;stroke-width:1.75;stroke-miterlimit:10;}
	.st9{fill:#474D4C;stroke:#000000;stroke-width:1.75;stroke-miterlimit:10;}
	.st10{fill:#FFFFFF;stroke:#000000;stroke-width:4;stroke-miterlimit:10;}
	.st11{fill:#E52625;stroke:#000000;stroke-width:1.75;stroke-miterlimit:10;}
	.st12{fill:none;stroke:#000000;stroke-width:4;stroke-miterlimit:10;}
	.st13{fill:none;stroke:#000000;stroke-width:3;stroke-miterlimit:10;}
	.st14{fill:#24512A;stroke:#000000;stroke-width:1.75;stroke-miterlimit:10;}
</style>
<g id="Layer_1" class="st0">
	<text transform="matrix(1 0 0 1 297.6377 420.945)" class="st1 st2 st3">shortcut </text>
	<path class="st4" d="M131.7,280"/>
	<path class="st4" d="M117.8,364.7"/>
	<path class="st4" d="M117.1,364.3"/>
	<g class="st1">
		
			<ellipse transform="matrix(0.2403 -0.9707 0.9707 0.2403 -372.8607 535.6772)" class="st5" cx="155.8" cy="506" rx="4.6" ry="4.7"/>
		<g>
			<circle class="st5" cx="117.5" cy="324.2" r="5.4"/>
			<g>
				<g>
					<circle class="st5" cx="87.4" cy="261.3" r="5.7"/>
					<circle class="st5" cx="80.1" cy="272" r="6"/>
					<circle class="st5" cx="94.4" cy="271.8" r="5.7"/>
				</g>
				<circle class="st5" cx="87.4" cy="268.7" r="1.4"/>
			</g>
			<g>
				<g>
					<circle class="st5" cx="134.5" cy="366.8" r="5.7"/>
					<circle class="st5" cx="121.5" cy="367.9" r="6"/>
					<circle class="st5" cx="130.7" cy="378.9" r="5.7"/>
				</g>
				<circle class="st5" cx="128.7" cy="371.5" r="1.4"/>
			</g>
			<path class="st5" d="M87.4,270c0,2.9,0.1,7,0.9,11.8c0.6,3.6,1.4,6.4,2.1,8.4"/>
			
				<ellipse transform="matrix(0.9395 -0.3427 0.3427 0.9395 -95.4843 49.4118)" class="st5" cx="92.1" cy="294.9" rx="4.7" ry="4.7"/>
			<path class="st5" d="M110.8,325.6c-2.9,5.3-12.1,7.7-17.5,4.6c-9.8-5.6-6-28.6,0.3-30.5C100.1,297.8,116,316.1,110.8,325.6z"/>
			<path class="st5" d="M106.8,323.7c-2,4.1-8.4,6-12.2,3.6c-6.9-4.4-4.2-22.4,0.2-23.9C99.4,301.9,110.5,316.2,106.8,323.7z"/>
			<circle class="st5" cx="87.7" cy="332.9" r="5.4"/>
			<ellipse class="st5" cx="111.2" cy="335" rx="6.4" ry="6.1"/>
			<ellipse class="st5" cx="98.4" cy="338.2" rx="6.4" ry="6.1"/>
			<circle class="st5" cx="106.8" cy="345.4" r="4.4"/>
			<path class="st6" d="M107.6,349.8c0.2,1.6,1.7,12.2,7.5,14.3c0.5,0.2,1,0.3,1.6,0.3"/>
			<g>
				<circle class="st5" cx="190.2" cy="324.2" r="5.4"/>
				<g>
					<g>
						<circle class="st5" cx="220.4" cy="261.3" r="5.7"/>
						<circle class="st5" cx="227.6" cy="272" r="6"/>
						<circle class="st5" cx="213.3" cy="271.8" r="5.7"/>
					</g>
					<circle class="st5" cx="220.4" cy="268.7" r="1.4"/>
				</g>
				<g>
					<g>
						<circle class="st5" cx="173.3" cy="366.8" r="5.7"/>
						<circle class="st5" cx="186.2" cy="367.9" r="6"/>
						<circle class="st5" cx="177" cy="378.9" r="5.7"/>
					</g>
					<circle class="st5" cx="179" cy="371.5" r="1.4"/>
				</g>
				<path class="st5" d="M220.4,270c0,2.9-0.1,7-0.9,11.8c-0.6,3.6-1.4,6.4-2.1,8.4"/>
				<ellipse class="st5" cx="215.7" cy="294.9" rx="4.7" ry="4.7"/>
				<path class="st5" d="M196.9,325.6c2.9,5.3,12.1,7.7,17.5,4.6c9.8-5.6,6-28.6-0.3-30.5C207.6,297.8,191.8,316.1,196.9,325.6z"/>
				<path class="st5" d="M200.9,323.7c2,4.1,8.4,6,12.2,3.6c6.9-4.4,4.2-22.4-0.2-23.9C208.3,301.9,197.3,316.2,200.9,323.7z"/>
				<circle class="st5" cx="220" cy="332.9" r="5.4"/>
				<ellipse class="st5" cx="196.6" cy="335" rx="6.4" ry="6.1"/>
				<ellipse class="st5" cx="209.3" cy="338.2" rx="6.4" ry="6.1"/>
				<circle class="st5" cx="200.9" cy="345.4" r="4.4"/>
				<path class="st6" d="M200.2,349.8c-0.2,1.6-1.7,12.2-7.5,14.3c-0.5,0.2-1,0.3-1.6,0.3"/>
			</g>
		</g>
		<circle class="st6" cx="153.8" cy="379.7" r="16.9"/>
		<g>
			<g>
				<g>
					<circle class="st5" cx="153.7" cy="412.6" r="5.7"/>
					<circle class="st5" cx="161" cy="401.8" r="6"/>
					<circle class="st5" cx="146.7" cy="402.1" r="5.7"/>
				</g>
				<circle class="st5" cx="153.7" cy="405.2" r="1.4"/>
			</g>
			<ellipse class="st5" cx="153.8" cy="448.4" rx="6.4" ry="6.1"/>
			
				<ellipse transform="matrix(0.2403 -0.9707 0.9707 0.2403 -341.7249 537.2922)" class="st5" cx="172.4" cy="487" rx="5.7" ry="5.7"/>
			<path class="st5" d="M165,486.7c-4.3,4.7-14.6,4.8-19.4,0.3c-8.8-8.3,1-31.1,8.1-31.4C161,455.2,172.8,478.2,165,486.7z"/>
			<path class="st5" d="M161.4,483.7c-3.1,3.8-10.3,4-13.7,0.6c-6.1-6.3,1.3-24.2,6.3-24.6C159.2,459.3,167.1,476.9,161.4,483.7z"/>
			
				<ellipse transform="matrix(0.2403 -0.9707 0.9707 0.2403 -368.3175 505.8938)" class="st5" cx="139" cy="488.3" rx="5.7" ry="5.7"/>
			
				<ellipse transform="matrix(0.2403 -0.9707 0.9707 0.2403 -358.007 535.3497)" class="st5" cx="163" cy="496.4" rx="6.5" ry="6.8"/>
			
				<ellipse transform="matrix(0.2403 -0.9707 0.9707 0.2403 -368.7822 521.6868)" class="st5" cx="148.9" cy="496.4" rx="6.5" ry="6.8"/>
			<path class="st6" d="M149.6,416.4c0.1,2.8,0.9,21.8,4,25.4c0.3,0.3,0.5,0.5,0.8,0.6"/>
			<path class="st6" d="M158.1,416.4c-0.1,2.8-0.9,21.8-4,25.4c-0.3,0.3-0.5,0.5-0.8,0.6"/>
			<ellipse class="st6" cx="153.8" cy="379.7" rx="14.9" ry="14.3"/>
		</g>
	</g>
	<path class="st4" d="M152.7,438.7"/>
	<path class="st7" d="M230.5,411c-0.1,7.3-0.2,14.6-0.3,21.9"/>
</g>
<g id="Calque_2">
	<g id="Layer_2">
		<g>
			
				<ellipse transform="matrix(0.2403 -0.9707 0.9707 0.2403 -349.1635 564.8462)" class="st8" cx="186.3" cy="505.5" rx="4.6" ry="4.7"/>
			<circle class="st9" cx="148" cy="323.7" r="5.4"/>
			<g>
				<g>
					<circle class="st9" cx="117.9" cy="260.7" r="5.7"/>
					<circle class="st9" cx="110.6" cy="271.5" r="6"/>
					<circle class="st9" cx="124.9" cy="271.2" r="5.7"/>
				</g>
				<circle class="st9" cx="117.9" cy="268.1" r="1.4"/>
			</g>
			<g>
				<g>
					<circle class="st9" cx="165" cy="366.3" r="5.7"/>
					<circle class="st9" cx="152" cy="367.3" r="6"/>
					<circle class="st9" cx="161.2" cy="378.3" r="5.7"/>
				</g>
				<circle class="st9" cx="159.2" cy="370.9" r="1.4"/>
			</g>
			<path class="st10" d="M117.9,269.5c0,2.9,0.1,7,0.9,11.8c0.6,3.6,1.4,6.4,2.1,8.4"/>
			
				<ellipse transform="matrix(0.9395 -0.3427 0.3427 0.9395 -93.4483 59.8197)" class="st9" cx="122.6" cy="294.4" rx="4.7" ry="4.7"/>
			<path class="st9" d="M141.3,325c-2.9,5.3-12.1,7.7-17.5,4.6c-9.8-5.6-6-28.6,0.3-30.5C130.6,297.2,146.4,315.5,141.3,325z"/>
			<path class="st11" d="M137.3,323.1c-2,4.1-8.4,6-12.2,3.6c-6.9-4.4-4.2-22.4,0.2-23.9C129.9,301.3,140.9,315.7,137.3,323.1z"/>
			<circle class="st9" cx="118.2" cy="332.4" r="5.4"/>
			<ellipse class="st9" cx="141.6" cy="334.4" rx="6.4" ry="6.1"/>
			<ellipse class="st9" cx="128.9" cy="337.6" rx="6.4" ry="6.1"/>
			<circle class="st8" cx="137.3" cy="344.9" r="4.4"/>
			<path class="st12" d="M138.1,349.2c0.2,1.6,1.7,12.2,7.5,14.3c0.5,0.2,1,0.3,1.6,0.3"/>
			<circle class="st9" cx="220.7" cy="323.7" r="5.4"/>
			<g>
				<g>
					<circle class="st9" cx="250.8" cy="260.7" r="5.7"/>
					<circle class="st9" cx="258.1" cy="271.5" r="6"/>
					<circle class="st9" cx="243.8" cy="271.2" r="5.7"/>
				</g>
				<circle class="st9" cx="250.8" cy="268.1" r="1.4"/>
			</g>
			<g>
				<g>
					<circle class="st9" cx="203.7" cy="366.3" r="5.7"/>
					<circle class="st9" cx="216.7" cy="367.3" r="6"/>
					<circle class="st9" cx="207.5" cy="378.3" r="5.7"/>
				</g>
				<circle class="st9" cx="209.5" cy="370.9" r="1.4"/>
			</g>
			<path class="st10" d="M250.8,269.5c0,2.9-0.1,7-0.9,11.8c-0.6,3.6-1.4,6.4-2.1,8.4"/>
			<ellipse class="st9" cx="246.2" cy="294.3" rx="4.7" ry="4.7"/>
			<path class="st9" d="M227.4,325c2.9,5.3,12.1,7.7,17.5,4.6c9.8-5.6,6-28.6-0.3-30.5C238.1,297.2,222.3,315.5,227.4,325z"/>
			<path class="st11" d="M231.4,323.1c2,4.1,8.4,6,12.2,3.6c6.9-4.4,4.2-22.4-0.2-23.9C238.8,301.3,227.8,315.7,231.4,323.1z"/>
			<circle class="st9" cx="250.5" cy="332.4" r="5.4"/>
			<ellipse class="st9" cx="227.1" cy="334.4" rx="6.4" ry="6.1"/>
			<ellipse class="st9" cx="239.8" cy="337.6" rx="6.4" ry="6.1"/>
			<circle class="st8" cx="231.4" cy="344.9" r="4.4"/>
			<path class="st12" d="M230.6,349.2c-0.2,1.6-1.7,12.2-7.5,14.3c-0.5,0.2-1,0.3-1.6,0.3"/>
			<circle class="st9" cx="184.2" cy="379.2" r="16.9"/>
			<g>
				<g>
					<circle class="st9" cx="184.2" cy="412" r="5.7"/>
					<circle class="st9" cx="191.5" cy="401.3" r="6"/>
					<circle class="st9" cx="177.2" cy="401.5" r="5.7"/>
				</g>
				<circle class="st9" cx="184.2" cy="404.6" r="1.4"/>
			</g>
			<ellipse class="st8" cx="184.2" cy="447.9" rx="6.4" ry="6.1"/>
			
				<ellipse transform="matrix(0.2403 -0.9707 0.9707 0.2403 -318.0325 566.45)" class="st9" cx="202.9" cy="486.4" rx="5.7" ry="5.7"/>
			<path class="st9" d="M195.5,486.1c-4.3,4.7-14.6,4.8-19.4,0.3c-8.8-8.3,1-31.1,8.1-31.4C191.5,454.7,203.3,477.6,195.5,486.1z"/>
			<path class="st11" d="M191.9,483.1c-3.1,3.8-10.3,4-13.7,0.6c-6.1-6.3,1.3-24.2,6.3-24.6C189.7,458.7,197.5,476.3,191.9,483.1z"
				/>
			
				<ellipse transform="matrix(0.2403 -0.9707 0.9707 0.2403 -344.6252 535.0516)" class="st9" cx="169.5" cy="487.7" rx="5.7" ry="5.7"/>
			
				<ellipse transform="matrix(0.2403 -0.9707 0.9707 0.2403 -334.3148 564.5074)" class="st9" cx="193.5" cy="495.8" rx="6.5" ry="6.8"/>
			
				<ellipse transform="matrix(0.2403 -0.9707 0.9707 0.2403 -345.1012 550.8495)" class="st9" cx="179.4" cy="495.9" rx="6.5" ry="6.8"/>
			<path class="st13" d="M180.1,415.8c0.1,2.8,0.9,21.8,4,25.4c0.3,0.3,0.5,0.5,0.8,0.6"/>
			<path class="st13" d="M188.6,415.8c-0.1,2.8-0.9,21.8-4,25.4c-0.3,0.3-0.5,0.5-0.8,0.6"/>
			<ellipse class="st14" cx="184.2" cy="379.2" rx="14.9" ry="14.3"/>
		</g>
	</g>
	<g id="Layer_3">
		<g>
			<path d="M214.1,431.3c-1,2-1.6,3.9-1.6,5.5c0,2.4,0.9,6.4,11.7,6.4c18.3,0,34.4-13.4,37.5-13.4c2,0,3.4,2.5,3.4,4.2
				c0,5.6-23.7,23.2-46.5,23.2c-12,0-19.5-9.1-19.5-19.6c0-19.5,22.9-43.6,40.5-43.6c12.2,0,13.9,9.2,13.9,12.8
				c0,15.1-19.4,30.4-29.4,30.4c-6.8,0-8.9-5.9-9.6-5.9L214.1,431.3L214.1,431.3z M223,425.6c2.9,0,12.3-5.6,17.1-16.4h-0.3
				c-8.6,0-17.2,7.3-17.2,9.1v0.7c0,2.8-2,3.8-2,5.2C220.6,424.9,221.4,425.6,223,425.6z"/>
			<path d="M343.4,331c2.3,0,6,2,6,7.2c0,2.3-34.5,97.4-34.5,137.9c0,6.4,2.5,6.6,2.5,9.7c0,2-1.6,3.9-3.6,3.9c-7.6,0-8-14.2-8-18.1
				v-0.9c0-16.4,5.5-44,5.5-45.3c0-0.5,0-0.8-0.2-1.2c-2.2,0.7-17,30.3-31.2,30.3c-9.6,0-11-10.5-11-14.3
				c0-16.9,11.1-40.7,25.2-40.7c4.3,0,8.6,2.4,12.9,7.1C337.6,350.9,333,331,343.4,331z M296.4,409.1c-9.6,0-16,14.3-17.5,28.1v0.6
				c0,2.9,0.4,4.3,1.4,4.3c5.5,0,22.9-26.8,22.9-29.7C303.2,411.2,300.2,409.1,296.4,409.1z"/>
			<path d="M340.3,441.5c0,1.1,0.1,6,2.5,6c4.5,0,15.9-18.3,19.1-31c2.6-10.5,5.6-12.7,8.3-12.7c0.9,0,5.7,0.7,5.7,7
				c0,4.5-8.6,30.8-8.6,41.4c0,5,5,2.1,5,7.2c0,2.8-2.3,6.4-6.1,6.4c-8.1,0-9.1-12.8-9.7-16c-3.8,4-7.8,9.3-14,9.3
				c-9.1,0-12-11.7-12-17.4c0-12.7,8.1-42.4,21.3-42.4c1.8,0,9.4,1.4,9.4,11.6c0,3-2,3.1-2.2,3.1c-2,0-3.2-5.4-6-5.4
				C347.9,408.6,340.3,427.5,340.3,441.5z"/>
			<path d="M379.5,449.4c0-4.4,4.9-52,11.2-52c0.7,0,2.2,2,2.2,6.2c0,4.2,13.3-13.2,19.3-13.2c7.7,0,7.9,11.9,7.9,14
				c0,1.8-0.1,1.4-1.3,19.4c-0.1,1.7-0.4,5.2-3.9,5.2c-5.2,0-7-18.5-7.3-22.5c-10,8.2-17.3,49.5-19.6,53.2c-1.2,1.9-2.7,3.4-4.8,3.4
				C377,463,379.5,450.9,379.5,449.4z"/>
			<path d="M424.7,390.6c-1,0-3.9-0.1-3.9-4.2c0-6.4,17.8-8.7,23.2-8.9c5-0.1,4.3-2.1,10.3-19.5c2.3-6.5,4.5-9.3,7.1-9.3
				c0.6,0,3.5,0.3,3.5,4.4c0,1.5,0,1.2-4.4,22.2c11.1-1.7,10.2-1.8,10.5-1.8h0.4c2.3,0,3.3,2.3,3.3,3.7c0,5.5-14,8-14.1,8
				c-7.3,1-23.6,76.4-23.6,80v0.1c0,0.8-0.7,6.6-4.6,6.6c-3.5,0-4.6-3.4-4.6-8.8c0-24.2,15.5-72.2,15.5-73.2c0-0.3,0-0.7-0.1-0.9
				c-15.5,1.5-16,1.6-18.1,1.6L424.7,390.6L424.7,390.6z"/>
		</g>
	</g>
</g>
</svg>
